<svg xmlns="http://www.w3.org/2000/svg" version="1.0" width="1024" height="1024" viewBox="0 0 1024 1024" preserveAspectRatio="xMidYMid meet">
<rect width="1024" height="1024" fill="#131313"/>
<g transform="translate(0,1024) scale(0.1,-0.1)" fill="#ff9400" stroke="none">
<path d="M3718 7768 l2 -308 75 0 75 0 0 -150 0 -150 -75 0 -75 0 0 -180 0 -180 -40 0 -40 0 -2 178 -3 177 -72 3 -73 3 0 149 0 150 75 0 75 0 0 303 c0 167 3 307 7 311 4 4 21 6 38 4 l30 -3 3 -307z"/>
<path d="M4240 7770 l0 -150 75 0 75 0 0 -355 0 -355 -75 0 -75 0 0 -375 0 -375 -40 0 -40 0 0 375 0 375 -75 0 -75 0 0 355 0 355 75 0 75 0 0 150 0 150 40 0 40 0 0 -150z"/>
<path d="M5465 7891 c350 -55 621 -140 910 -286 727 -367 1233 -975 1460 -1757 86 -295 119 -539 119 -883 0 -278 -10 -386 -60 -640 -226 -1137 -1106 -2016 -2252 -2250 -265 -54 -268 -54 -1872 -56 l-1485 -1 0 1589 0 1588 548 3 547 2 0 -1085 0 -1085 894 0 c916 0 953 1 1155 41 278 55 613 221 811 403 207 189 379 442 481 705 37 95 92 312 115 456 25 152 26 504 1 660 -71 456 -231 796 -506 1079 -196 201 -411 337 -680 430 -226 79 -359 97 -728 103 l-303 5 0 505 0 505 353 -5 c297 -4 374 -8 492 -26z"/>
<path d="M3158 7373 l2 -232 73 -3 72 -3 3 -472 2 -473 -75 0 -75 0 0 -199 c0 -187 -1 -199 -19 -204 -10 -2 -31 -2 -45 0 l-26 5 0 199 0 199 -75 0 -75 0 0 475 0 475 75 0 75 0 0 236 0 235 43 -3 42 -3 3 -232z"/>
<path d="M2518 6983 l2 -233 75 0 75 0 0 -405 0 -405 -75 0 -75 0 -2 -232 -3 -233 -42 -3 -43 -3 0 235 0 236 -75 0 -75 0 0 405 0 405 75 0 75 0 0 236 0 235 43 -3 42 -3 3 -232z"/>
</g>
</svg>
